<svg width="217" height="40" viewBox="0 0 217 40" fill="none" xmlns="http://www.w3.org/2000/svg">
<g clip-path="url(#clip0_16_3039)">
<path d="M108.7 0C108.641 0 108.655 0.00134944 108.604 0.00185728C108.661 0.00185728 108.713 0.00058651 108.77 0.000247956C108.751 0.000247956 108.733 0.000247956 108.717 0.000247956C108.711 0.000247956 108.706 0.000247956 108.7 0.000247956V0ZM108.77 0.000247956C108.833 0.00109434 108.904 0.00168801 108.967 0.00185728C108.91 0.000588893 108.86 8.34471e-05 108.815 8.34471e-05C108.8 8.34471e-05 108.785 0.000166893 108.77 8.34471e-05V0.000247956ZM108.967 0.00210523C108.974 0.00210523 108.981 0.00210523 108.987 0.00210523C108.981 0.00210523 108.974 0.00210523 108.967 0.00125884V0.00210523ZM109.221 0.0119901C109.181 0.0119901 109.143 0.00961781 109.103 0.00961781H108.186C108.185 0.00961781 108.17 0.00953197 108.169 0.00961781H96.5118C95.3553 0.00961781 93.6446 0.190089 91.3794 0.551781C89.0583 0.913391 87.3369 1.10433 86.2164 1.12344L85.9313 1.57974L90.2079 1.63677C90.6369 1.63677 91.2295 1.81801 91.9862 2.17961C92.7443 2.5223 93.3376 2.69364 93.7668 2.69364L115.756 3.05813C115.801 3.12921 115.846 3.20004 115.888 3.27121L93.1961 3.60686C92.15 3.62589 90.6061 3.81682 88.5648 4.17852C86.5234 4.54021 85.0072 4.7398 84.0157 4.77775L83.8166 5.20588C84.7678 5.20588 86.1617 5.39615 87.9988 5.77704C89.8375 6.13856 91.2224 6.3289 92.1536 6.34801L116.891 6.68604C116.895 6.74672 116.898 6.8075 116.9 6.86726L90.8848 7.23361C89.9694 7.25271 88.5654 7.4521 86.6719 7.83281C84.7971 8.21353 83.3753 8.39476 82.4068 8.37566H81.9308L81.6776 8.77496C82.6276 8.79406 84.0491 8.99424 85.9421 9.37486C87.8353 9.75557 89.2753 9.95572 90.2625 9.97475L98.3804 10.0877L98.2064 10.3795L87.955 10.9168C87.3367 10.9548 86.3887 11.1544 85.1123 11.5161C83.8544 11.8777 82.8898 12.0589 82.2183 12.0589C82.013 12.0589 81.5944 12.0491 80.9616 12.0301H79.7025L79.5069 12.4012H79.7866C82.4138 12.4392 83.9189 12.5248 84.3008 12.6581C86.0464 13.2673 87.1051 13.5818 87.4767 13.601L96.0004 14.0799L95.8468 14.3371L86.6017 14.4571C85.5744 14.4761 84.0484 14.6762 82.0245 15.0569C80.0191 15.4377 78.5219 15.6372 77.5319 15.6562L77.362 16.0562C78.3118 16.0752 79.7054 16.2753 81.5425 16.6559C83.3797 17.0367 84.7732 17.2363 85.7232 17.2552L112.283 17.5362C112.235 17.5957 112.181 17.6586 112.132 17.7187L84.6249 18.1121C83.5788 18.1311 82.026 18.3214 79.966 18.6831C77.9247 19.0447 76.3988 19.2443 75.3888 19.2824L75.1913 19.6823C76.0666 19.7012 77.3574 19.9015 79.064 20.2821C80.7907 20.6438 82.1104 20.8342 83.023 20.8531L108.199 21.1918C108.097 21.2535 107.995 21.3128 107.893 21.372L82.2022 21.7382C81.1935 21.7573 79.6955 21.9568 77.7088 22.3375C75.7236 22.6992 74.2363 22.8896 73.2463 22.9086L72.9649 23.3084C73.9147 23.3273 75.3171 23.5274 77.173 23.9083C79.0489 24.2701 80.4714 24.4602 81.4398 24.4793L89.7182 24.6162L89.5916 24.8282L79.7517 25.3644C79.2654 25.3833 78.5433 25.5639 77.5853 25.9066C76.6474 26.2303 75.9257 26.4016 75.4207 26.4206L71.0774 26.5063L70.8475 26.9633H71.0438C73.8203 27.0013 75.4361 27.0962 75.8911 27.2484C77.5291 27.8006 78.5524 28.0864 78.9614 28.1054L87.4473 28.4248L87.3177 28.6427L77.4107 29.0187C75.6319 29.3612 74.3117 29.6851 73.4497 29.9896C71.4627 30.1229 69.9666 30.1805 68.9608 30.1613L68.7069 30.5606H68.9308C71.5967 30.5796 73.185 30.6751 73.6947 30.8466C75.2953 31.3986 76.3001 31.6837 76.7091 31.7027L85.2699 32.0768L85.141 32.293L75.6361 32.5878C74.9258 32.6067 73.8474 32.8167 72.4 33.2165C70.9529 33.6163 69.8468 33.8157 69.0819 33.8157C68.8582 33.8157 68.4677 33.8063 67.9093 33.7876H66.7337L66.5387 34.1587L70.6154 34.2728C71.1362 34.2917 71.8691 34.4723 72.8137 34.8151C73.7769 35.1577 74.5095 35.3388 75.0119 35.3578L83.1078 35.7031L82.9781 35.9205L72.9877 36.2428C72.3333 36.2618 71.358 36.4619 70.0613 36.8427C68.7649 37.2234 67.7714 37.4137 67.081 37.4137C66.8573 37.4137 66.4386 37.4043 65.8244 37.385H64.5928L64.3656 37.8131H64.5894C67.2554 37.8321 68.816 37.9178 69.271 38.0701C71.0914 38.6792 72.3557 38.9841 73.0646 38.9841H81.152H81.7665H81.8311L90.3916 24.6271L92.5184 24.6624C92.5793 24.6648 92.6116 24.6672 92.6763 24.6707C97.832 24.8815 100.966 24.9732 105.219 23.0133C105.368 22.9464 105.517 22.8788 105.666 22.8081C105.685 22.7989 105.704 22.7897 105.723 22.7804C106.365 22.4729 107.002 22.1307 107.633 21.7506C108.096 21.4819 108.569 21.1986 109.067 20.8823C112.319 18.8156 117.383 13.3177 117.374 7.1638C117.368 3.08669 114.899 1.28675 113.191 0.579765C112.013 0.0921249 110.084 0.00852584 108.987 0.00226974C109.06 0.00446797 109.142 0.00869274 109.221 0.0119901ZM99.0546 10.0972L116.454 10.3398C116.439 10.393 116.424 10.4487 116.409 10.5037L108.162 10.8309C106.666 11.1356 105.554 11.4305 104.824 11.7161C102.57 11.9254 100.874 12.0208 99.7381 12.0019L99.4849 12.4012L100.573 12.43C102.624 12.4491 103.931 12.5536 104.495 12.7439C106.225 13.3151 107.23 13.6101 107.508 13.6291L114.849 13.9538C114.821 13.9992 114.792 14.0461 114.764 14.0919L96.5318 14.3286L99.0546 10.0972ZM215.454 0.00827551L215.452 0.00961781H189.564C188.519 0.00961781 187.014 0.18096 185.049 0.523634C183.007 0.885244 181.5 1.07552 180.53 1.09463L180.21 1.63677C182.168 1.65587 183.658 1.66569 184.685 1.66569C184.997 1.72282 185.635 1.93202 186.597 2.29364C187.377 2.57925 188.038 2.72186 188.579 2.72186L213.647 3.05744L213.537 3.24375L187.367 3.60695C186.358 3.62589 184.852 3.81691 182.849 4.17852C180.865 4.5212 179.378 4.70175 178.387 4.72077L178.127 5.20588C179.114 5.22498 180.628 5.43486 182.67 5.83459C184.656 6.21521 186.18 6.40566 187.244 6.40566L211.511 6.65662L211.4 6.84224L185.169 7.23377C184.178 7.25271 182.69 7.44308 180.705 7.80476C178.739 8.14744 177.263 8.3279 176.272 8.34682L175.98 8.88976C176.969 8.88976 178.411 9.07022 180.305 9.43192C182.201 9.7746 183.624 9.95572 184.574 9.97475L201.459 10.2606L201.307 10.5134L191.585 10.8881C191.08 10.9071 190.33 11.0974 189.333 11.4591C188.337 11.8017 187.578 11.9731 187.056 11.9731L182.941 12.0019L182.687 12.4012H183.08C185.538 12.4392 187.07 12.5536 187.671 12.7439C189.31 13.2769 190.325 13.5628 190.713 13.601C194.419 13.7733 197.242 13.8794 199.272 13.9269L199.13 14.1677L189.412 14.5432C188.758 14.5619 187.756 14.7523 186.404 15.1141C185.054 15.4757 184.023 15.6562 183.315 15.6562C183.091 15.6562 182.671 15.647 182.058 15.628H180.798L180.545 16.0272C183.781 16.408 186.189 16.7697 187.767 17.1123C189.093 17.3598 190.752 17.4932 192.746 17.5123C194.191 17.5288 195.647 17.5456 197.106 17.5621L196.985 17.7638L187.246 18.1121C186.573 18.1312 185.541 18.3404 184.15 18.7402C182.779 19.1208 181.72 19.3014 180.976 19.2824L178.543 19.2542L178.373 19.6541L182.502 19.8252C184.137 20.1678 185.345 20.4916 186.124 20.7961C189.931 21.0751 192.836 21.2113 194.925 21.2188L194.822 21.3918L185.241 21.7665C184.699 21.7855 183.893 21.9568 182.825 22.2806C181.757 22.6041 180.941 22.7754 180.38 22.7944L176.429 22.8803L176.206 23.2513C177.546 23.2896 179.558 23.5753 182.241 24.1083C184.814 24.6412 186.828 24.9075 188.282 24.9075C188.637 24.9075 189.487 24.8884 190.833 24.8504C191.593 24.8367 192.212 24.8363 192.764 24.8422L192.661 25.0152L182.849 25.364C182.343 25.3831 181.602 25.5734 180.623 25.9349C179.666 26.2777 178.926 26.449 178.403 26.449L174.261 26.4772L174.061 26.9059L178.195 26.9912C178.679 27.0102 179.345 27.2006 180.195 27.5622C181.047 27.905 181.705 28.0861 182.17 28.1049L190.644 28.3975L190.498 28.643L180.507 29.019C179.854 29.0378 178.869 29.2374 177.554 29.6182C176.257 29.9989 175.235 30.1892 174.489 30.1892C174.303 30.1892 173.902 30.1798 173.289 30.1611H172.086L171.889 30.5322C174.441 30.5892 176.812 30.9411 179.002 31.5883C180.28 31.969 181.935 32.1593 183.969 32.1593C186.419 32.1476 187.732 32.1342 188.424 32.1221L188.353 32.2403L178.62 32.6162C177.927 32.6352 176.868 32.8355 175.441 33.2161C174.033 33.5777 172.956 33.7583 172.21 33.7583H169.889L169.693 34.1295H170.14C172.601 34.1483 174.078 34.2438 174.569 34.4152C176.243 34.9672 177.285 35.2622 177.693 35.3002C181.419 35.5084 184.255 35.6416 186.287 35.7074L186.194 35.8629L176.452 36.1855C175.947 36.2043 175.206 36.3848 174.229 36.7276C173.271 37.0703 172.54 37.2513 172.036 37.2703L167.775 37.3556L167.55 37.7556L171.35 37.8413C171.852 37.8603 172.574 38.0605 173.516 38.4412C174.458 38.8028 175.191 38.9834 175.714 38.9834H184.333H184.947H185.012L202.131 10.2714L209.283 10.3921L209.277 10.4024L209.954 10.4059L216.134 0.00522137L215.454 0.00827551ZM60.5751 0.00961781H32.5272C31.4081 0.00961781 29.7818 0.180792 27.6486 0.52347C25.4581 0.885246 23.8308 1.07544 22.766 1.09463L22.5362 1.55142C23.4115 1.57044 24.7029 1.77 26.4095 2.15062C28.1361 2.5124 29.4464 2.70276 30.3403 2.72179L57.1742 3.13781L56.9659 3.32995L29.4636 3.6067C28.4549 3.6258 26.967 3.81682 25.0004 4.17844C23.0336 4.54014 21.5735 4.73962 20.6192 4.77766L20.368 5.14874C21.2976 5.18685 22.7094 5.39605 24.6023 5.77685C26.441 6.13846 27.863 6.32883 28.8689 6.34793L53.2342 6.76279L52.9924 6.98502L27.4603 7.23352C26.4516 7.25262 24.9452 7.44297 22.9414 7.8045C20.9373 8.16627 19.4309 8.35664 18.4223 8.37557L18.1948 8.8037C19.1448 8.82273 20.5478 9.0223 22.4037 9.40301C24.278 9.78372 25.6996 9.98387 26.6681 10.0028L49.2939 10.3878L49.0956 10.5698L36.3092 10.9167C35.6177 10.9358 34.5771 11.1353 33.1874 11.516C31.7989 11.8777 30.7408 12.0588 30.0133 12.0588H27.6632L27.3817 12.4587L31.6565 12.544C32.1773 12.563 32.9092 12.7533 33.8524 13.1151C34.7969 13.4576 35.5296 13.6387 36.0506 13.6578L45.3977 13.9718L45.1253 14.2222L33.0493 14.5141C32.4698 14.5331 31.6176 14.7142 30.4916 15.0568C29.3671 15.3806 28.5146 15.5518 27.9351 15.571L23.704 15.6561L23.5643 16.0272L27.5294 16.1418C28.0501 16.1609 28.773 16.3513 29.6976 16.7128C30.6422 17.0556 31.3654 17.2361 31.8678 17.2552L41.4591 17.595L41.2442 17.7931L29.0621 18.112C28.4638 18.131 27.5639 18.3213 26.362 18.6831C25.1617 19.0256 24.244 19.197 23.6099 19.197L19.8309 19.2252L19.605 19.6251H20.1369C22.5217 19.6632 23.9511 19.7581 24.4248 19.9103C26.4116 20.5386 27.4421 20.8531 27.5168 20.8531L37.5198 21.2193L37.2442 21.4728L24.6811 21.7381C24.0082 21.7571 22.9947 21.9664 21.6408 22.3662C20.2883 22.7469 19.2577 22.9372 18.549 22.9372C18.3251 22.9372 17.8873 22.9278 17.2358 22.9084H15.921L15.6995 23.2513C18.4559 23.3085 20.6801 23.6322 22.3712 24.2223C23.4622 24.6029 25.4237 24.8123 28.256 24.8504H33.5727L33.3627 25.0437L20.9734 25.3355C20.4312 25.3546 19.6344 25.5358 18.5831 25.8783C17.5333 26.2019 16.7374 26.3733 16.1952 26.3923L11.9619 26.5065L11.7643 26.9063L15.8448 26.9635C16.5522 26.9823 17.5354 27.1819 18.7943 27.5627C20.0533 27.9433 21.0076 28.1526 21.6575 28.1907L29.4677 28.6273L29.1041 28.9617H17.2358C16.1726 28.9617 14.6302 29.143 12.6075 29.5046C10.5276 29.8852 8.99214 30.0848 8.00217 30.1038L7.83717 30.4466C9.73406 30.5228 11.1568 30.5797 12.1052 30.6177C12.4927 30.6748 13.131 30.8748 14.0196 31.2176C14.8178 31.5222 15.4689 31.6746 15.9725 31.6746L42.4965 32.1201L42.4018 32.2798L13.2227 32.5308C12.1967 32.5308 10.6718 32.7211 8.64788 33.1018C6.62385 33.4826 5.09801 33.6827 4.0707 33.7017L3.90385 34.0728C7.80728 34.5107 10.7144 34.9201 12.6261 35.3007C16.7288 35.5672 21.6808 35.7006 27.4819 35.7006H35.9036C37.4667 35.7006 38.9271 35.7111 40.3471 35.7253L40.2401 35.9053L9.48509 36.1569C8.40321 36.1569 6.84131 36.3473 4.7986 36.728C2.6813 37.1087 1.11745 37.3187 0.107377 37.3567L0 37.6708C0.892472 37.7089 2.26464 37.9463 4.11624 38.3841C5.87736 38.7838 7.25247 38.9841 8.24092 38.9841H39.0188H39.0837L45.1084 28.9617L44.4291 28.961L44.4285 28.9617H30.0924L61.45 0.00718117L60.5751 0.00961781ZM157.643 0.00961781H157.598H134.477C133.414 0.00961781 131.88 0.190086 129.876 0.551865C127.817 0.913389 126.291 1.10376 125.302 1.12278L125.046 1.55159C126.014 1.57051 127.436 1.76104 129.312 2.12256C131.206 2.48425 132.639 2.67461 133.607 2.69364L155.444 2.9446L155.333 3.13191L132.423 3.57872C131.376 3.59765 129.823 3.79781 127.762 4.17852C125.719 4.55932 124.184 4.75881 123.156 4.77775L122.903 5.17764C123.815 5.19675 125.153 5.39632 126.916 5.77704C128.679 6.15766 130.017 6.34801 130.93 6.34801L153.303 6.54319L153.176 6.75814L130.419 7.20486C129.373 7.22387 127.8 7.42398 125.703 7.80476C123.624 8.16638 122.062 8.35664 121.016 8.37566L120.76 8.80386C121.785 8.82289 123.208 9.00344 125.029 9.34611C126.96 9.72683 128.371 9.93662 129.263 9.97475C132.474 10.1401 135.22 10.223 137.521 10.2287L137.389 10.4515L127.547 10.8598C127.042 10.8788 126.291 11.0593 125.297 11.402C124.303 11.7256 123.544 11.897 123.02 11.916L118.843 12.0301L118.589 12.43L122.752 12.5158C123.235 12.5348 123.893 12.7252 124.725 13.0869C125.558 13.4294 126.206 13.6101 126.671 13.6291L135.315 13.9262L135.218 14.0914C132.994 14.1183 129.974 14.3528 126.136 14.8001C121.695 15.3328 118.521 15.628 116.614 15.685L116.446 16.0562L120.525 16.1421C120.955 16.1421 121.547 16.3226 122.304 16.6842C123.06 17.0458 123.663 17.2271 124.111 17.2271L146.769 17.5045L146.67 17.6678L123.43 18.1121C122.44 18.1312 120.951 18.3307 118.965 18.7113C116.998 19.0729 115.52 19.2633 114.53 19.2824L114.332 19.6823C115.207 19.7012 116.498 19.9015 118.205 20.2821C119.911 20.6628 121.222 20.8531 122.136 20.8531L144.64 21.0747L144.509 21.2946C131.024 21.5627 123.499 21.7093 123.191 21.7093C121.941 21.7093 120.146 21.8998 117.805 22.2806C115.371 22.6612 113.583 22.8705 112.442 22.9086L112.161 23.3084L116.322 23.4225C116.749 23.4417 117.342 23.6227 118.1 23.9653C118.858 24.3081 119.461 24.4793 119.909 24.4793L128.957 24.591L128.722 24.9867L118.666 25.3927C117.993 25.4116 116.934 25.6118 115.488 25.9925C114.118 26.3542 113.051 26.5347 112.286 26.5347H110.16L110.016 26.9635H110.548C112.99 26.9823 114.457 27.0772 114.948 27.2486C116.623 27.8006 117.6 28.0864 117.878 28.1054L126.654 28.4549L126.559 28.6139L116.635 29.0194C116.149 29.0384 115.427 29.2188 114.469 29.5617C113.531 29.8851 112.809 30.0566 112.304 30.0756L108.043 30.1896L107.843 30.6178L112.008 30.6748C112.456 30.6748 113.059 30.8462 113.817 31.1888C114.593 31.5314 115.196 31.7126 115.623 31.7316L124.508 32.0547L124.398 32.239L114.803 32.6167C114.26 32.6357 113.463 32.8162 112.412 33.159C111.361 33.5017 110.555 33.6827 109.994 33.7017L105.956 33.8157L105.703 34.2157C107.007 34.2348 108.975 34.4918 111.606 34.9867C114.145 35.4626 116.113 35.7006 117.512 35.7006H122.334L122.236 35.8646L112.52 36.2428C112.015 36.2618 111.264 36.4431 110.269 36.7857C109.274 37.1283 108.515 37.3088 107.991 37.3278L103.758 37.4421L103.56 37.8418H104.008C106.525 37.861 108.038 37.9557 108.547 38.1272C110.333 38.6982 111.496 38.9841 112.037 38.9841H120.991H121.055L129.632 24.5994L143.055 24.7646L143.056 24.7638L143.12 24.7646L149.486 14.0861H149.413H135.901L138.199 10.2311H151.671H151.684L151.784 10.232L157.871 0.00844002L157.644 0.00980377L157.643 0.00961781ZM166.299 0.637507C164.702 1.03741 163.493 1.23748 162.672 1.23748C162.393 1.23748 161.927 1.22766 161.276 1.20865C160.643 1.18971 160.158 1.18041 159.823 1.18041L159.593 1.63669C162.427 1.65579 164.117 1.76045 164.662 1.9508C166.207 2.50276 167.239 2.78855 167.76 2.80765L176.186 3.09954L176.04 3.34381L166.551 3.66443C166.045 3.68353 165.285 3.86407 164.272 4.20675C163.278 4.53032 162.519 4.70159 161.996 4.72069L157.708 4.80656L157.508 5.2347L161.447 5.32057C161.987 5.33959 162.729 5.52006 163.674 5.86274C164.637 6.20532 165.369 6.38647 165.871 6.40566L174.009 6.74902L173.876 6.97232L164.321 7.3189C163.797 7.33791 163.029 7.51905 162.015 7.86164C161.02 8.18521 160.262 8.35664 159.738 8.37566L155.592 8.46095L155.339 8.83201C157.909 8.88916 160.134 9.2037 162.013 9.77467C162.87 10.0412 164.565 10.2126 167.096 10.2888C168.682 10.3054 170.269 10.3324 171.854 10.3638L171.714 10.5986L162.122 10.945C161.617 10.9641 160.878 11.1354 159.902 11.459C158.928 11.7826 158.187 11.954 157.682 11.9731L153.394 12.0589L153.169 12.4587L156.689 12.5441C157.265 12.563 158.082 12.7533 159.136 13.1151C160.192 13.4767 160.998 13.667 161.556 13.6861L169.682 14.0079L169.553 14.2242L159.896 14.5712C159.391 14.5901 158.651 14.7614 157.676 15.0851C156.7 15.4088 155.96 15.5801 155.456 15.5991L151.165 15.7132L150.998 16.0849L154.966 16.1702C155.487 16.1893 156.199 16.3794 157.106 16.7412C158.032 17.0838 158.745 17.2649 159.247 17.2839L167.507 17.6544L167.391 17.8496L157.979 18.1691C157.456 18.1881 156.668 18.3686 155.617 18.7112C154.585 19.0348 153.799 19.2062 153.256 19.2253L148.997 19.3112L148.829 19.6822L152.738 19.7963C153.259 19.8153 153.973 20.0056 154.878 20.3673C155.804 20.7098 156.519 20.8912 157.021 20.9101L165.36 21.256L165.229 21.4758L155.275 21.8234C154.807 21.8424 154.103 22.0236 153.163 22.3662C152.245 22.6898 151.543 22.8515 151.058 22.8515L146.943 22.8802L146.659 23.3083L150.846 23.4512C151.31 23.4702 151.959 23.6508 152.792 23.9934C153.643 24.3362 154.301 24.5172 154.766 24.5362L163.215 24.8539L163.083 25.0749L153.386 25.4213C152.732 25.4402 151.748 25.6307 150.433 25.9925C149.12 26.3541 148.108 26.5347 147.4 26.5347C147.12 26.5347 146.692 26.5252 146.114 26.5065C145.537 26.4872 145.119 26.4777 144.858 26.4777L144.49 26.9063H144.994C147.454 26.9445 148.937 27.0582 149.445 27.2486C151.099 27.8387 152.14 28.1436 152.567 28.1626L161.051 28.4826L160.939 28.6711L151.273 29.0187C150.619 29.0378 149.634 29.238 148.319 29.6186C147.004 29.9992 146.001 30.1896 145.311 30.1896C145.012 30.1896 144.556 30.1803 143.942 30.1608C143.33 30.1228 142.865 30.1038 142.548 30.1038L142.319 30.5326H142.544C145.264 30.5706 146.879 30.6844 147.387 30.8748C149.005 31.4458 150.037 31.7408 150.483 31.7598L158.908 32.0793L158.778 32.2961L149.103 32.6449C148.504 32.6639 147.661 32.8353 146.574 33.159C145.678 33.4255 144.649 33.5967 143.487 33.673C143.036 33.711 141.999 33.7397 140.374 33.7588L140.149 34.1587H140.625C143.121 34.1967 144.651 34.3105 145.216 34.5008C146.818 35.0338 147.73 35.3099 147.953 35.3288L156.729 35.7318L156.616 35.9209L146.905 36.2428C146.363 36.2618 145.567 36.4425 144.515 36.7851C143.485 37.1086 142.697 37.2801 142.155 37.2991L138.147 37.3848L137.977 37.7847L142.057 37.8699C142.578 37.8891 143.31 38.0799 144.253 38.4416C145.215 38.8032 145.957 38.9838 146.479 38.9838H154.79H155.404H155.469L178.691 0.0386119H178.445L169.927 0.00953436C169.106 0.00953436 167.897 0.218842 166.299 0.637507ZM70.697 0.637507C69.1006 1.03741 67.8917 1.23748 67.0709 1.23748C66.7912 1.23748 66.3259 1.22766 65.6744 1.20865C65.0416 1.18963 64.5571 1.18041 64.2215 1.18041L63.9917 1.63669C66.8255 1.65579 68.5155 1.76045 69.061 1.9508C70.6056 2.50276 71.6386 2.78855 72.1596 2.80765L80.5848 3.09954L80.4389 3.34381L70.949 3.66443C70.444 3.68353 69.6843 3.86407 68.6703 4.20675C67.6764 4.53032 66.9177 4.70159 66.394 4.72069L62.1067 4.80656L61.9074 5.2347L65.8461 5.32057C66.3856 5.33959 67.1274 5.52006 68.072 5.86274C69.0352 6.20532 69.768 6.38647 70.2703 6.40566L78.4087 6.74902L78.2754 6.97232L68.72 7.3189C68.1964 7.33791 67.4277 7.51905 66.4138 7.86164C65.42 8.18521 64.6606 8.35664 64.1368 8.37566L59.9898 8.46095L59.7384 8.83201C62.3084 8.88916 64.5329 9.2037 66.412 9.77467C67.2689 10.0412 68.9626 10.2126 71.4939 10.2888C73.0809 10.3055 74.6676 10.3324 76.2536 10.3638L76.1132 10.5986L66.5211 10.945C66.0162 10.9641 65.276 11.1354 64.3008 11.459C63.3255 11.7826 62.5853 11.954 62.0802 11.9731L57.7935 12.0589L57.5677 12.4587L61.087 12.5441C61.6639 12.563 62.4799 12.7533 63.5349 13.1151C64.5901 13.4767 65.3965 13.667 65.9547 13.6861L74.0835 14.0031L73.9503 14.2258L64.2948 14.5712C63.7898 14.5901 63.0494 14.7614 62.0742 15.0851C61.0991 15.4088 60.3587 15.5801 59.8538 15.5991L55.5645 15.7132L55.3971 16.0849L59.3639 16.1702C59.8849 16.1893 60.5981 16.3796 61.5041 16.7412C62.43 17.0838 63.1444 17.2649 63.6466 17.2839L71.9062 17.6544L71.7898 17.8496L62.3779 18.1691C61.8542 18.1881 61.0664 18.3687 60.0152 18.7112C58.9838 19.0349 58.1971 19.2063 57.6548 19.2253L53.3957 19.3112L53.2282 19.6822L57.1368 19.7963C57.6577 19.8153 58.3715 20.0056 59.2776 20.3673C60.2034 20.7098 60.9172 20.8912 61.4194 20.9101L69.759 21.256L69.6275 21.4758L59.6731 21.8234C59.2052 21.8424 58.5019 22.0236 57.5624 22.3662C56.6432 22.6898 55.9416 22.8515 55.4566 22.8515L51.3414 22.8802L51.0576 23.3083L55.2441 23.4512C55.709 23.4702 56.3576 23.6508 57.1903 23.9934C58.0417 24.3362 58.6999 24.5172 59.1648 24.5362L67.6135 24.8539L67.4821 25.0749L57.7844 25.4213C57.1301 25.4403 56.1461 25.6307 54.8324 25.9925C53.5186 26.3541 52.5069 26.5347 51.7981 26.5347C51.5183 26.5347 51.0901 26.5252 50.5133 26.5065C49.9364 26.4875 49.5177 26.4777 49.2565 26.4777L48.8892 26.9063H49.3928C51.8522 26.9445 53.3357 27.0582 53.844 27.2486C55.4977 27.8387 56.5388 28.1436 56.9665 28.1626L65.4505 28.4826L65.3377 28.6711L55.672 29.0187C55.0177 29.0378 54.0326 29.238 52.7176 29.6186C51.4023 29.9992 50.3998 30.1896 49.7097 30.1896C49.4111 30.1896 48.9548 30.1803 48.3407 30.1609C47.7279 30.1228 47.2631 30.1038 46.946 30.1038L46.7187 30.5326H46.9424C49.663 30.5706 51.2773 30.6846 51.7856 30.8748C53.4033 31.4459 54.4354 31.7408 54.8817 31.7598L63.3057 32.0793L63.1761 32.2961L53.5013 32.6451C52.903 32.664 52.06 32.8353 50.973 33.159C50.0765 33.4255 49.0474 33.5967 47.8853 33.673C47.4348 33.711 46.3972 33.7397 44.7729 33.7588L44.5472 34.1587H45.0232C47.52 34.1967 49.0507 34.3104 49.6149 34.5009C51.2169 35.0338 52.1289 35.3098 52.3514 35.3288L61.1277 35.7319L61.015 35.9209L51.3042 36.2428C50.762 36.2618 49.965 36.4426 48.914 36.7851C47.8827 37.1086 47.0959 37.2801 46.5535 37.2991L42.5465 37.3848L42.3766 37.7847L46.4558 37.8699C46.9766 37.8891 47.7084 38.08 48.6516 38.4417C49.6135 38.8032 50.3558 38.9838 50.8781 38.9838H59.1889H59.8033H59.8681L73.5374 16.0591L74.6747 14.2006L74.6446 14.2019L83.0891 0.0382804H82.8946L74.3246 0.00953436C73.5041 0.00953436 72.2949 0.218842 70.697 0.637507ZM195.515 30.3379C194.991 30.5557 194.501 30.8803 194.046 31.312C193.592 31.7435 193.24 32.2186 192.993 32.7373C192.744 33.2559 192.598 33.8202 192.553 34.43C192.508 35.0317 192.572 35.592 192.743 36.1106C192.914 36.6253 193.195 37.0985 193.587 37.53C193.978 37.9615 194.42 38.2862 194.912 38.5039C195.408 38.7217 195.95 38.8306 196.54 38.8306C197.13 38.8306 197.687 38.7217 198.212 38.5039C198.74 38.2862 199.231 37.9615 199.686 37.53C200.141 37.0985 200.492 36.6253 200.739 36.1106C200.988 35.592 201.134 35.0317 201.177 34.43C201.224 33.8202 201.16 33.2559 200.989 32.7373C200.818 32.2186 200.537 31.7435 200.146 31.312C199.754 30.8803 199.311 30.5557 198.815 30.3379C198.323 30.1203 197.782 30.0113 197.192 30.0113C196.602 30.0113 196.044 30.1203 195.515 30.3379ZM195.186 37.9457C194.761 37.7557 194.38 37.4746 194.044 37.1023C193.706 36.7302 193.46 36.3204 193.308 35.8731C193.156 35.4217 193.097 34.9407 193.136 34.43C193.173 33.9152 193.302 33.4322 193.522 32.9807C193.741 32.5256 194.048 32.1118 194.44 31.7396C194.832 31.3673 195.254 31.0882 195.707 30.9022C196.159 30.7161 196.639 30.6231 197.147 30.6231C197.659 30.6231 198.128 30.7161 198.553 30.9022C198.981 31.0882 199.363 31.3673 199.701 31.7396C200.031 32.1078 200.27 32.5175 200.419 32.969C200.568 33.4163 200.623 33.9033 200.584 34.43C200.547 34.9485 200.419 35.4316 200.204 35.8789C199.992 36.3264 199.692 36.7342 199.305 37.1023C198.912 37.4746 198.488 37.7557 198.032 37.9457C197.579 38.1318 197.097 38.2248 196.585 38.2248C196.076 38.2248 195.61 38.1318 195.186 37.9457ZM195.281 31.8583L194.913 36.8232H195.815L195.971 34.7091H196.356C196.565 34.7091 196.736 34.7605 196.869 34.8635C197.005 34.9623 197.173 35.202 197.374 35.5821L198.033 36.8232H199.034L198.334 35.4988C198.178 35.2098 198.039 34.9901 197.918 34.8396C197.802 34.6853 197.698 34.5923 197.607 34.5606C197.984 34.4932 198.282 34.3487 198.5 34.1271C198.723 33.9053 198.846 33.6242 198.871 33.2837C198.906 32.8046 198.764 32.4483 198.444 32.2147C198.124 31.9771 197.622 31.8583 196.94 31.8583H195.281ZM196.138 32.4701H196.854C197.276 32.4701 197.568 32.5334 197.729 32.6601C197.892 32.7828 197.96 32.9947 197.939 33.2956C197.917 33.5924 197.816 33.8023 197.636 33.9251C197.461 34.0478 197.158 34.1092 196.732 34.1092H196.016L196.138 32.4701Z" fill="url(#paint0_linear_16_3039)"/>
</g>
<defs>
<linearGradient id="paint0_linear_16_3039" x1="9.54796" y1="-25.7826" x2="206.201" y2="87.6944" gradientUnits="userSpaceOnUse">
<stop stop-color="#EE8723"/>
<stop offset="0.183294" stop-color="#EE3323"/>
<stop offset="0.278542" stop-color="#FCCF23"/>
<stop offset="0.352847" stop-color="#FCCF23"/>
<stop offset="0.402488" stop-color="#69BD45"/>
<stop offset="0.572042" stop-color="#4FC9F5"/>
<stop offset="0.575252" stop-color="#4FC9F5"/>
<stop offset="0.709729" stop-color="#2B2E84"/>
<stop offset="0.717944" stop-color="#2B2E84"/>
<stop offset="0.851235" stop-color="#B3287C"/>
<stop offset="0.909722" stop-color="#B3287C"/>
<stop offset="1" stop-color="#B3287C"/>
</linearGradient>
<clipPath id="clip0_16_3039">
<rect width="216.134" height="40" fill="white"/>
</clipPath>
</defs>
</svg>
